<svg width="101" height="100" viewBox="0 0 101 100" fill="none" xmlns="http://www.w3.org/2000/svg">
<path d="M50.5 67.1875C49.6712 67.1875 48.8763 66.8583 48.2903 66.2722C47.7042 65.6862 47.375 64.8913 47.375 64.0625V53.125H36.4375C35.6087 53.125 34.8138 52.7958 34.2278 52.2097C33.6417 51.6237 33.3125 50.8288 33.3125 50C33.3125 49.1712 33.6417 48.3763 34.2278 47.7903C34.8138 47.2042 35.6087 46.875 36.4375 46.875H47.375V35.9375C47.375 35.1087 47.7042 34.3138 48.2903 33.7278C48.8763 33.1417 49.6712 32.8125 50.5 32.8125C51.3288 32.8125 52.1237 33.1417 52.7097 33.7278C53.2958 34.3138 53.625 35.1087 53.625 35.9375V46.875H64.5625C65.3913 46.875 66.1862 47.2042 66.7722 47.7903C67.3583 48.3763 67.6875 49.1712 67.6875 50C67.6875 50.8288 67.3583 51.6237 66.7722 52.2097C66.1862 52.7958 65.3913 53.125 64.5625 53.125H53.625V64.0625C53.625 64.8913 53.2958 65.6862 52.7097 66.2722C52.1237 66.8583 51.3288 67.1875 50.5 67.1875Z" fill="white"/>
<path fill-rule="evenodd" clip-rule="evenodd" d="M28.625 3.125C14.8172 3.125 3.625 14.3172 3.625 28.125V71.875C3.625 85.6828 14.8172 96.875 28.625 96.875H72.375C86.1828 96.875 97.375 85.6828 97.375 71.875V32.1984C97.3748 30.4844 97.0221 28.7888 96.3388 27.2169C95.6555 25.6449 94.6563 24.2303 93.4031 23.0609L75.6469 6.4875C73.3322 4.32676 70.2837 3.12501 67.1172 3.125H28.625ZM9.875 28.125C9.875 17.7703 18.2703 9.375 28.625 9.375H66.125V18.75C66.125 22.0652 67.442 25.2446 69.7862 27.5888C72.1304 29.933 75.3098 31.25 78.625 31.25H91.0531C91.1 31.5625 91.125 31.8797 91.125 32.1984V71.875C91.125 82.2297 82.7297 90.625 72.375 90.625H28.625C18.2703 90.625 9.875 82.2297 9.875 71.875V28.125ZM72.375 18.75V11.9844L86.3219 25H78.625C76.9674 25 75.3777 24.3415 74.2056 23.1694C73.0335 21.9973 72.375 20.4076 72.375 18.75Z" fill="white"/>
</svg>
