<svg width="101" height="100" viewBox="0 0 101 100" fill="none" xmlns="http://www.w3.org/2000/svg">
<path d="M72.375 81.25H28.625C27.7962 81.25 27.0013 80.9208 26.4153 80.3347C25.8292 79.7487 25.5 78.9538 25.5 78.125V21.875C25.5 21.0462 25.8292 20.2513 26.4153 19.6653C27.0013 19.0792 27.7962 18.75 28.625 18.75H59.875C60.7037 18.7502 61.4985 19.0795 62.0844 19.6656L74.5844 32.1656C75.1705 32.7515 75.4998 33.5463 75.5 34.375V78.125C75.5 78.9538 75.1708 79.7487 74.5847 80.3347C73.9987 80.9208 73.2038 81.25 72.375 81.25ZM31.75 75H69.25V35.6687L58.5813 25H31.75V75Z" fill="white"/>
<path d="M56.75 40.625H44.25C43.4212 40.625 42.6263 40.2958 42.0403 39.7097C41.4542 39.1237 41.125 38.3288 41.125 37.5C41.125 36.6712 41.4542 35.8763 42.0403 35.2903C42.6263 34.7042 43.4212 34.375 44.25 34.375H56.75C57.5788 34.375 58.3737 34.7042 58.9597 35.2903C59.5458 35.8763 59.875 36.6712 59.875 37.5C59.875 38.3288 59.5458 39.1237 58.9597 39.7097C58.3737 40.2958 57.5788 40.625 56.75 40.625ZM56.75 53.125H44.25C43.4212 53.125 42.6263 52.7958 42.0403 52.2097C41.4542 51.6237 41.125 50.8288 41.125 50C41.125 49.1712 41.4542 48.3763 42.0403 47.7903C42.6263 47.2042 43.4212 46.875 44.25 46.875H56.75C57.5788 46.875 58.3737 47.2042 58.9597 47.7903C59.5458 48.3763 59.875 49.1712 59.875 50C59.875 50.8288 59.5458 51.6237 58.9597 52.2097C58.3737 52.7958 57.5788 53.125 56.75 53.125ZM56.75 65.625H44.25C43.4212 65.625 42.6263 65.2958 42.0403 64.7097C41.4542 64.1237 41.125 63.3288 41.125 62.5C41.125 61.6712 41.4542 60.8763 42.0403 60.2903C42.6263 59.7042 43.4212 59.375 44.25 59.375H56.75C57.5788 59.375 58.3737 59.7042 58.9597 60.2903C59.5458 60.8763 59.875 61.6712 59.875 62.5C59.875 63.3288 59.5458 64.1237 58.9597 64.7097C58.3737 65.2958 57.5788 65.625 56.75 65.625ZM9.875 31.25C9.0462 31.25 8.25134 30.9208 7.66529 30.3347C7.07924 29.7487 6.75 28.9538 6.75 28.125V9.375C6.75 8.5462 7.07924 7.75134 7.66529 7.16529C8.25134 6.57924 9.0462 6.25 9.875 6.25H22.375C23.2038 6.25 23.9987 6.57924 24.5847 7.16529C25.1708 7.75134 25.5 8.5462 25.5 9.375C25.5 10.2038 25.1708 10.9987 24.5847 11.5847C23.9987 12.1708 23.2038 12.5 22.375 12.5H13V28.125C13 28.9538 12.6708 29.7487 12.0847 30.3347C11.4987 30.9208 10.7038 31.25 9.875 31.25ZM91.125 31.25C90.2962 31.25 89.5013 30.9208 88.9153 30.3347C88.3292 29.7487 88 28.9538 88 28.125V12.5H78.625C77.7962 12.5 77.0013 12.1708 76.4153 11.5847C75.8292 10.9987 75.5 10.2038 75.5 9.375C75.5 8.5462 75.8292 7.75134 76.4153 7.16529C77.0013 6.57924 77.7962 6.25 78.625 6.25H91.125C91.9538 6.25 92.7487 6.57924 93.3347 7.16529C93.9208 7.75134 94.25 8.5462 94.25 9.375V28.125C94.25 28.9538 93.9208 29.7487 93.3347 30.3347C92.7487 30.9208 91.9538 31.25 91.125 31.25ZM22.375 93.75H9.875C9.0462 93.75 8.25134 93.4208 7.66529 92.8347C7.07924 92.2487 6.75 91.4538 6.75 90.625V71.875C6.75 71.0462 7.07924 70.2513 7.66529 69.6653C8.25134 69.0792 9.0462 68.75 9.875 68.75C10.7038 68.75 11.4987 69.0792 12.0847 69.6653C12.6708 70.2513 13 71.0462 13 71.875V87.5H22.375C23.2038 87.5 23.9987 87.8292 24.5847 88.4153C25.1708 89.0013 25.5 89.7962 25.5 90.625C25.5 91.4538 25.1708 92.2487 24.5847 92.8347C23.9987 93.4208 23.2038 93.75 22.375 93.75ZM91.125 93.75H78.625C77.7962 93.75 77.0013 93.4208 76.4153 92.8347C75.8292 92.2487 75.5 91.4538 75.5 90.625C75.5 89.7962 75.8292 89.0013 76.4153 88.4153C77.0013 87.8292 77.7962 87.5 78.625 87.5H88V71.875C88 71.0462 88.3292 70.2513 88.9153 69.6653C89.5013 69.0792 90.2962 68.75 91.125 68.75C91.9538 68.75 92.7487 69.0792 93.3347 69.6653C93.9208 70.2513 94.25 71.0462 94.25 71.875V90.625C94.25 91.4538 93.9208 92.2487 93.3347 92.8347C92.7487 93.4208 91.9538 93.75 91.125 93.75ZM50.5 28.125C49.6712 28.125 48.8763 27.7958 48.2903 27.2097C47.7042 26.6237 47.375 25.8288 47.375 25V15.625C47.375 14.7962 47.7042 14.0013 48.2903 13.4153C48.8763 12.8292 49.6712 12.5 50.5 12.5C51.3288 12.5 52.1237 12.8292 52.7097 13.4153C53.2958 14.0013 53.625 14.7962 53.625 15.625V25C53.625 25.8288 53.2958 26.6237 52.7097 27.2097C52.1237 27.7958 51.3288 28.125 50.5 28.125ZM31.75 53.125H22.375C21.5462 53.125 20.7513 52.7958 20.1653 52.2097C19.5792 51.6237 19.25 50.8288 19.25 50C19.25 49.1712 19.5792 48.3763 20.1653 47.7903C20.7513 47.2042 21.5462 46.875 22.375 46.875H31.75C32.5788 46.875 33.3737 47.2042 33.9597 47.7903C34.5458 48.3763 34.875 49.1712 34.875 50C34.875 50.8288 34.5458 51.6237 33.9597 52.2097C33.3737 52.7958 32.5788 53.125 31.75 53.125ZM78.625 53.125H69.25C68.4212 53.125 67.6263 52.7958 67.0403 52.2097C66.4542 51.6237 66.125 50.8288 66.125 50C66.125 49.1712 66.4542 48.3763 67.0403 47.7903C67.6263 47.2042 68.4212 46.875 69.25 46.875H78.625C79.4538 46.875 80.2487 47.2042 80.8347 47.7903C81.4208 48.3763 81.75 49.1712 81.75 50C81.75 50.8288 81.4208 51.6237 80.8347 52.2097C80.2487 52.7958 79.4538 53.125 78.625 53.125ZM50.5 87.5C49.6712 87.5 48.8763 87.1708 48.2903 86.5847C47.7042 85.9987 47.375 85.2038 47.375 84.375V75C47.375 74.1712 47.7042 73.3763 48.2903 72.7903C48.8763 72.2042 49.6712 71.875 50.5 71.875C51.3288 71.875 52.1237 72.2042 52.7097 72.7903C53.2958 73.3763 53.625 74.1712 53.625 75V84.375C53.625 85.2038 53.2958 85.9987 52.7097 86.5847C52.1237 87.1708 51.3288 87.5 50.5 87.5Z" fill="white"/>
</svg>
