<svg width="101" height="100" viewBox="0 0 101 100" fill="none" xmlns="http://www.w3.org/2000/svg">
<g clip-path="url(#clip0_1_357)">
<mask id="mask0_1_357" style="mask-type:luminance" maskUnits="userSpaceOnUse" x="0" y="0" width="101" height="100">
<path d="M0.5 0.000297546H100.5V100H0.5V0.000297546Z" fill="white"/>
</mask>
<g mask="url(#mask0_1_357)">
<path d="M64.1717 2.92999V18.5549C64.1717 20.7124 65.9205 22.4612 68.0779 22.4612H83.7029" fill="white"/>
<path d="M50.4999 38.4768L44.8468 27.1704C44.1979 25.8727 43.2004 24.7814 41.9663 24.0186C40.7321 23.2559 39.3099 22.8519 37.8591 22.8518H11.2422C6.92753 22.8518 3.42969 26.3495 3.42969 30.6643V89.2579C3.42969 93.5727 6.92753 97.0703 11.2422 97.0703H89.7576C94.0722 97.0703 97.57 93.5727 97.57 89.2579V46.2892C97.57 41.9744 94.0722 38.4768 89.7576 38.4768H50.4999Z" stroke="white" stroke-width="6" stroke-miterlimit="10" stroke-linecap="round" stroke-linejoin="round"/>
<path d="M97.57 46.2892V34.5705C97.57 30.2557 94.0722 26.7581 89.7575 26.7581H83.7029" stroke="white" stroke-width="6" stroke-miterlimit="10" stroke-linecap="round" stroke-linejoin="round"/>
<path d="M83.7029 38.4768V22.4612L64.1717 2.93001H17.2968V22.8518" stroke="white" stroke-width="6" stroke-miterlimit="10" stroke-linecap="round" stroke-linejoin="round"/>
<path d="M66.1248 61.9142H56.3592V52.1486H44.6405V61.9142H34.8749V73.6329H44.6405V83.3985H56.3592V73.6329H66.1248V61.9142Z" stroke="white" stroke-width="6" stroke-miterlimit="10" stroke-linecap="round" stroke-linejoin="round"/>
</g>
</g>
<defs>
<clipPath id="clip0_1_357">
<rect width="100" height="100" fill="white" transform="translate(0.5)"/>
</clipPath>
</defs>
</svg>
