<svg width="192" height="29" viewBox="0 0 192 29" fill="none" xmlns="http://www.w3.org/2000/svg">
<path d="M0.442 28V0.434998H4.845L17.277 16.826V0.434998H23.012V28H18.572L6.177 11.239V28H0.442ZM35.6729 28.444C29.6789 28.444 24.8319 24.004 24.8319 17.899C24.8319 11.794 29.6789 7.354 35.6729 7.354C41.6299 7.354 46.4769 11.794 46.4769 17.899C46.4769 24.004 41.6299 28.444 35.6729 28.444ZM35.6729 23.449C38.6699 23.449 40.7419 21.155 40.7419 17.899C40.7419 14.68 38.6699 12.349 35.6729 12.349C32.6389 12.349 30.5669 14.68 30.5669 17.899C30.5669 21.155 32.6389 23.449 35.6729 23.449ZM53.8622 28L45.9072 7.798H51.9012L56.2672 19.897L60.6332 7.798H66.6272L58.6722 28H53.8622ZM72.7507 28.444C68.3847 28.444 65.6837 26.261 65.6837 22.598C65.6837 19.194 68.0147 16.9 72.8617 16.123L78.4487 15.235V14.68C78.4487 13.163 77.1537 11.979 75.0817 11.979C73.0837 11.979 71.4927 13.163 70.8267 14.939L66.3867 12.83C67.5707 9.463 71.0487 7.354 75.3407 7.354C80.4467 7.354 83.9987 10.351 83.9987 14.68V28H78.8187V26.113C77.2277 27.704 75.3037 28.444 72.7507 28.444ZM71.4187 22.413C71.4187 23.671 72.4547 24.374 73.8607 24.374C76.5987 24.374 78.4487 22.413 78.4487 19.934V19.305L73.8607 20.119C72.2697 20.415 71.4187 21.081 71.4187 22.413ZM92.0991 28V0.434998H94.5041V12.978H110.044V0.434998H112.449V28H110.044V15.198H94.5041V28H92.0991ZM126.113 28.444C120.563 28.444 116.308 24.004 116.308 18.121C116.308 12.275 120.415 7.909 125.78 7.909C131.182 7.909 134.808 12.238 134.808 17.233C134.808 17.714 134.771 18.269 134.66 18.861H118.602C118.787 23.338 122.117 26.372 126.113 26.372C128.962 26.372 131.108 24.892 132.44 22.635L134.327 23.634C132.995 26.409 129.887 28.444 126.113 28.444ZM125.78 9.981C122.117 9.981 119.046 12.756 118.639 16.826H132.44C132.514 12.941 129.517 9.981 125.78 9.981ZM143.516 28.444C139.853 28.444 137.078 26.187 137.078 22.894C137.078 20.045 138.854 17.529 143.405 16.752L150.768 15.531V14.421C150.768 11.794 148.696 10.018 145.699 10.018C143.22 10.018 141.148 11.35 140.112 13.348L138.114 12.275C139.224 9.907 142.295 7.909 145.699 7.909C149.954 7.909 152.988 10.61 152.988 14.421V28H150.768V24.596C149.547 26.742 146.846 28.444 143.516 28.444ZM139.409 22.82C139.409 24.929 141.222 26.409 143.664 26.409C147.919 26.409 150.768 23.19 150.768 19.305V17.603L143.997 18.713C140.63 19.268 139.409 20.859 139.409 22.82ZM157.251 28V-0.00900108H159.471V28H157.251ZM170.853 28.222C167.56 28.222 165.747 26.335 165.747 22.783V10.462H162.047V8.353H163.453C164.896 8.353 165.747 7.428 165.747 5.874V3.765H167.967V8.353H172.259V10.462H167.967V22.783C167.967 24.448 168.522 26.113 171.186 26.113C171.593 26.113 172.222 26.076 172.592 26.002V28C172.037 28.148 171.223 28.222 170.853 28.222ZM176.062 28V-0.00900108H178.282V10.98C179.429 9.093 181.575 7.909 184.128 7.909C188.161 7.909 191.491 10.906 191.491 15.161V28H189.271V15.79C189.271 12.238 186.903 10.092 183.795 10.092C180.465 10.092 178.282 12.608 178.282 16.16V28H176.062Z" fill="#0E39BA"/>
</svg>
